<svg width="45" height="44" viewBox="0 0 45 44" fill="none" xmlns="http://www.w3.org/2000/svg">
    <rect x="0.75" y="0.5" width="43" height="43" rx="21.5" stroke="white"/>
    <g clip-path="url(#clip0_101_1285)">
        <path d="M22.25 15.4413C24.386 15.4413 24.6393 15.4493 25.4827 15.488C26.3547 15.528 27.2527 15.7267 27.888 16.362C28.5293 17.0033 28.722 17.8927 28.762 18.7673C28.8007 19.6107 28.8087 19.864 28.8087 22C28.8087 24.136 28.8007 24.3893 28.762 25.2327C28.7227 26.1 28.5193 27.0067 27.888 27.638C27.2467 28.2793 26.358 28.472 25.4827 28.512C24.6393 28.5507 24.386 28.5587 22.25 28.5587C20.114 28.5587 19.8607 28.5507 19.0173 28.512C18.1567 28.4727 17.238 28.2647 16.612 27.638C15.974 27 15.778 26.102 15.738 25.2327C15.6993 24.3893 15.6913 24.136 15.6913 22C15.6913 19.864 15.6993 19.6107 15.738 18.7673C15.7773 17.9033 15.9827 16.9913 16.612 16.362C17.252 15.722 18.1447 15.528 19.0173 15.488C19.8607 15.4493 20.114 15.4413 22.25 15.4413ZM22.25 14C20.0773 14 19.8047 14.0093 18.9513 14.048C17.7147 14.1047 16.4867 14.4487 15.5927 15.3427C14.6953 16.24 14.3547 17.4653 14.298 18.7013C14.2593 19.5547 14.25 19.8273 14.25 22C14.25 24.1727 14.2593 24.4453 14.298 25.2987C14.3547 26.534 14.7 27.7653 15.5927 28.6573C16.4893 29.554 17.7167 29.8953 18.9513 29.952C19.8047 29.9907 20.0773 30 22.25 30C24.4227 30 24.6953 29.9907 25.5487 29.952C26.7847 29.8953 28.014 29.5507 28.9073 28.6573C29.8053 27.7593 30.1453 26.5347 30.202 25.2987C30.2407 24.4453 30.25 24.1727 30.25 22C30.25 19.8273 30.2407 19.5547 30.202 18.7013C30.1453 17.4647 29.8007 16.236 28.9073 15.3427C28.012 14.4473 26.7813 14.104 25.5487 14.048C24.6953 14.0093 24.4227 14 22.25 14Z" fill="white"/>
        <path d="M22.2506 17.892C19.9819 17.892 18.1426 19.7313 18.1426 22C18.1426 24.2686 19.9819 26.108 22.2506 26.108C24.5192 26.108 26.3586 24.2686 26.3586 22C26.3586 19.7313 24.5192 17.892 22.2506 17.892ZM22.2506 24.6666C20.7779 24.6666 19.5839 23.4726 19.5839 22C19.5839 20.5273 20.7779 19.3333 22.2506 19.3333C23.7232 19.3333 24.9172 20.5273 24.9172 22C24.9172 23.4726 23.7232 24.6666 22.2506 24.6666Z" fill="white"/>
        <path d="M26.5205 18.6893C27.0507 18.6893 27.4805 18.2595 27.4805 17.7293C27.4805 17.1991 27.0507 16.7693 26.5205 16.7693C25.9904 16.7693 25.5605 17.1991 25.5605 17.7293C25.5605 18.2595 25.9904 18.6893 26.5205 18.6893Z" fill="white"/>
    </g>
    <defs>
        <clipPath id="clip0_101_1285">
            <rect width="16" height="16" fill="white" transform="translate(14.25 14)"/>
        </clipPath>
    </defs>
</svg>
