<svg width="45" height="44" viewBox="0 0 45 44" fill="none" xmlns="http://www.w3.org/2000/svg">
    <rect x="0.75" y="0.5" width="43" height="43" rx="21.5" stroke="white"/>
    <g clip-path="url(#clip0_101_1284)">
        <path d="M30.2424 26.6241C30.2763 26.8839 30.1971 27.1097 30.0052 27.3016L27.7525 29.5374C27.6508 29.6503 27.5182 29.7464 27.3544 29.8253C27.1907 29.9044 27.0298 29.9552 26.8718 29.9778C26.8605 29.9778 26.8265 29.9807 26.7701 29.9863C26.7137 29.9919 26.6403 29.9948 26.5499 29.9948C26.3353 29.9948 25.9881 29.9581 25.5082 29.8847C25.0283 29.8113 24.4411 29.6306 23.7467 29.3427C23.0521 29.0547 22.2645 28.6227 21.3838 28.0469C20.503 27.4711 19.5658 26.6806 18.5721 25.6756C17.7816 24.8964 17.1267 24.1512 16.6072 23.4398C16.0878 22.7284 15.67 22.0706 15.3538 21.4665C15.0376 20.8623 14.8005 20.3147 14.6424 19.8235C14.4843 19.3323 14.377 18.9088 14.3206 18.5531C14.2641 18.1974 14.2415 17.9179 14.2528 17.7147C14.2641 17.5114 14.2698 17.3985 14.2698 17.3759C14.2923 17.2178 14.3432 17.0569 14.4222 16.8932C14.5012 16.7295 14.5972 16.5968 14.7102 16.4951L16.9629 14.2424C17.121 14.0843 17.3017 14.0052 17.5049 14.0052C17.6517 14.0052 17.7816 14.0476 17.8945 14.1323C18.0074 14.217 18.1034 14.3214 18.1825 14.4456L19.9948 17.8841C20.0965 18.0647 20.1247 18.2624 20.0795 18.4769C20.0344 18.6914 19.9384 18.8721 19.7916 19.0189L18.9616 19.8489C18.939 19.8715 18.9193 19.9082 18.9023 19.959C18.8854 20.0098 18.8769 20.0521 18.8769 20.086C18.9221 20.3231 19.0237 20.5942 19.1818 20.899C19.3173 21.1701 19.5262 21.5003 19.8085 21.8899C20.0908 22.2795 20.4917 22.7283 21.0111 23.2365C21.5193 23.756 21.9709 24.1596 22.3662 24.4476C22.7613 24.7354 23.0917 24.9472 23.3571 25.0827C23.6224 25.2183 23.8257 25.3001 23.9668 25.3283L24.1785 25.3706C24.2011 25.3706 24.2378 25.3621 24.2886 25.3452C24.3394 25.3283 24.3761 25.3085 24.3987 25.2859L25.3642 24.3035C25.5675 24.1229 25.8046 24.0325 26.0756 24.0325C26.2676 24.0325 26.42 24.0664 26.5329 24.1342H26.5498L29.8188 26.0651C30.056 26.212 30.1972 26.3983 30.2424 26.6241Z" fill="white"/>
    </g>
    <defs>
        <clipPath id="clip0_101_1284">
            <rect width="16" height="16" fill="white" transform="translate(14.25 14)"/>
        </clipPath>
    </defs>
</svg>
